<?xml version="1.0" encoding="UTF-8"?>
<svg id="_レイヤー_2" data-name="レイヤー 2" xmlns="http://www.w3.org/2000/svg" viewBox="0 0 1073.7 105.83">
  <defs>
    <style>
      .cls-1 {
        fill-rule: evenodd;
      }
    </style>
  </defs>
  <g id="_レイヤー_1-2" data-name="レイヤー 1">
    <g>
      <path d="M214.18,26.26c-6.09,12.96-18.6,26.15-35.28,36.74v34.82c0,2.14-1.24,3.16-4.85,3.16s-4.85-1.01-4.85-3.16v-29.19c-12.51,6.54-26.71,11.61-42.04,14.43-2.14.34-4.28-1.46-4.28-4.4s1.58-5.07,3.61-5.41c36.4-6.65,67.06-27.72,76.75-47.11.9-1.47,0-2.82-1.8-2.82h-71.68c-2.03,0-3.83-1.92-3.83-4.73s1.8-4.73,3.83-4.73h37.87v-4.73c0-2.14,1.13-4.51,4.73-4.51s4.85,2.37,4.85,4.51v4.73h33.13c2.37,0,4.4,2.03,4.85,5.18.45,3.16,0,5.18-1.01,7.21ZM213.73,81.48l-25.13-14.65c-1.58-.9-2.82-4.17-1.58-6.31,1.69-3.04,4.4-2.93,6.2-1.92l25.13,14.65c1.8,1.01,2.59,2.59,2.59,4.28,0,4.51-3.61,6.09-7.21,3.94Z"/>
      <path d="M310.19,99.18h-74.72c-2.03,0-4.28-1.13-4.28-4.51s2.25-4.73,4.28-4.73h70.55c1.8,0,3.16-1.35,3.16-3.16V25.02c0-1.8-1.35-3.16-3.16-3.16h-70.44c-2.14,0-4.4-1.13-4.4-4.73s2.25-4.73,4.4-4.73h74.61c4.73,0,8.45,3.72,8.45,8.45v69.99c0,4.73-3.72,8.34-8.45,8.34Z"/>
      <path d="M356.74,101.09h-15.55c-2.14,0-4.4-1.13-4.4-4.62s2.25-4.73,4.4-4.73h15.33c39.67,0,56.58-14.99,56.58-53.2v-14.65c0-1.8-1.35-3.16-3.16-3.16h-72.58c-2.14,0-4.4-1.13-4.4-4.73s2.25-4.73,4.4-4.73h76.75c4.73,0,8.45,3.72,8.45,8.45v19.16c0,42.49-19.61,62.21-65.82,62.21Z"/>
      <path d="M441.14,63.34c-3.61,0-4.73-2.25-4.73-4.4V11.95c0-2.14,1.13-4.51,4.73-4.51s4.85,2.37,4.85,4.51v47c0,2.14-1.24,4.4-4.85,4.4ZM465.37,101.43h-13.64c-2.03,0-4.28-1.13-4.28-4.62s2.25-4.62,4.28-4.62h12.85c37.75,0,50.04-16.91,50.04-44.97V11.95c0-2.14,1.13-4.51,4.73-4.51s4.85,2.37,4.85,4.51v35.95c0,33.92-16.23,53.53-58.83,53.53Z"/>
      <path d="M623.38,58.83h-83.06c-1.92,0-4.17-1.92-4.17-4.62s2.25-4.62,4.17-4.62h83.06c1.92,0,4.17,1.8,4.17,4.62s-2.25,4.62-4.17,4.62Z"/>
      <path d="M670.82,101.21h-19.05c-2.03,0-3.83-1.92-3.83-4.73s1.8-4.62,3.83-4.62h18.82c35.73,0,53.76-14.88,53.76-45.31v-22.65c0-1.8-1.35-3.16-3.16-3.16h-55.45c-.68,0-1.24.56-1.35,1.24-.79,14.88-6.54,26.6-19.84,33.36-1.8.9-5.52-.56-5.52-3.61s1.47-4.62,3.38-5.75c8.79-5.41,12.85-13.98,13.64-28.4.11-1.58.68-2.82,2.14-4.28,1.58-1.46,2.93-2.03,4.4-2.03h62.77c4.73,0,8.45,3.72,8.45,8.45v27.5c0,33.47-19.27,53.98-63,53.98Z"/>
      <path d="M835.13,97.49l-24.79-22.54c-15.21,14.43-36.52,22.77-59.84,25.58-2.03.23-4.06-1.58-4.06-4.4s1.58-4.85,3.72-5.18c37.98-5.07,71.23-26.82,73.26-67.51.11-1.8-1.24-3.16-3.04-3.16h-66.94c-2.03,0-3.72-1.92-3.72-4.73s1.69-4.62,3.72-4.62h75.62c2.59,0,4.62,2.03,4.62,4.62v2.25c0,20.4-6.2,36.97-16.68,49.93l24.01,22.2c2.25,2.14,3.04,5.41,1.58,7.44-1.47,2.14-5.3,2.14-7.44.11Z"/>
      <path d="M956.84,105.04c-.34,0-.68,0-.9-.11-22.54-7.21-39.9-25.47-48.01-48.57-7.89,23.44-26.15,42.26-49.02,48.57-.34.11-.56.11-.9.11-2.48,0-4.06-2.37-4.06-4.73,0-2.14,1.35-3.83,2.93-4.28,25.36-7.44,43.73-30.77,45.76-60.07h-44.63c-1.92,0-4.06-1.8-4.06-4.51s2.14-4.51,4.06-4.51h44.85V4.17c0-1.92,1.92-4.17,4.73-4.17s4.62,2.25,4.62,4.17v22.77h44.86c1.8,0,3.94,1.8,3.94,4.51s-2.14,4.51-3.94,4.51h-44.52c2.82,29.19,20.74,51.84,45.87,60.18,1.47.45,2.71,2.25,2.71,4.28,0,2.37-1.8,4.62-4.28,4.62Z"/>
      <path d="M1069.87,76.75h-44.63v17.02c0,6.99-4.96,12.06-11.95,12.06h-18.37c-1.8,0-3.83-1.69-3.83-4.28s2.03-4.17,3.83-4.17h16.23c2.82,0,5.18-2.37,5.18-5.18v-15.44h-45.87c-1.69,0-3.72-1.58-3.72-4.17s2.03-4.17,3.72-4.17h45.87v-2.48c0-4.62,2.7-8.11,6.31-9.02,14.31-3.61,18.37-8.68,18.37-9.35,0-.9-.79-1.46-2.03-1.46h-50.38c-1.8,0-3.72-1.69-3.72-4.17s1.92-4.06,3.72-4.06h57.14c3.72,0,6.99,2.59,6.99,5.86,0,3.83-6.31,13.3-25.13,18.48-1.69.45-2.37,1.92-2.37,3.61v2.59h44.63c1.8,0,3.83,1.69,3.83,4.17s-2.03,4.17-3.83,4.17ZM1068.18,41.81c-2.59,0-4.28-2.03-4.28-3.83v-9.13c0-1.58-1.24-2.93-2.93-2.93h-81.48c-1.69,0-2.93,1.35-2.93,2.93v9.13c0,1.8-1.69,3.83-4.17,3.83-2.71,0-4.4-2.03-4.4-3.83v-11.83c0-4.73,3.72-8.45,8.45-8.45h7.21c-.68-2.7-4.17-11.83-4.17-13.75,0-2.37,2.03-3.72,4.17-3.72,1.69,0,3.27.9,3.83,2.25,1.46,3.61,3.49,9.58,4.96,15.21h23.55c-.68-2.59-4.06-11.83-4.06-13.75,0-2.37,2.03-3.72,4.17-3.72,1.69,0,3.27.9,3.83,2.25,1.46,3.61,3.38,9.58,4.62,15.21h21.98l5.75-15.1c.45-1.24,2.14-2.48,4.06-2.48,2.14,0,4.06,1.69,4.06,3.94,0,.45-.11.79-.23,1.13l-4.62,12.51h8.34c4.73,0,8.45,3.72,8.45,8.45v11.83c0,1.8-1.69,3.83-4.17,3.83Z"/>
    </g>
    <g>
      <path class="cls-1" d="M47.79,28.84c1.44-6.6.74-23.25-7.88-25.25-3.07-.74-6.29.28-8.41,2.61-1.75,1.78-3.16,3.9-4.2,6.38-3.1,7.27-2.03,17.06,2.94,21.78,5.8,5.52,15.65,3.13,17.55-5.52h0Z"/>
      <path class="cls-1" d="M23.37,51.36c.43-6.75-2.76-23.1-11.63-23.78-3.13-.25-6.14,1.23-7.88,3.83-1.47,2.03-2.52,4.33-3.19,6.93-1.99,7.67.58,17.18,6.2,21.11,6.53,4.57,15.92.74,16.51-8.1h0Z"/>
      <path class="cls-1" d="M56.87,28.84c-1.44-6.6-.77-23.25,7.88-25.25,3.07-.74,6.26.28,8.38,2.61,1.78,1.78,3.16,3.9,4.23,6.38,3.1,7.27,1.99,17.06-2.95,21.78-5.8,5.52-15.65,3.13-17.55-5.52h0Z"/>
      <path class="cls-1" d="M81.29,51.36c-.46-6.75,2.76-23.1,11.6-23.78,3.13-.25,6.17,1.23,7.92,3.83,1.44,2.03,2.52,4.33,3.19,6.93,1.96,7.67-.58,17.18-6.2,21.11-6.57,4.57-15.92.74-16.51-8.1h0Z"/>
      <path class="cls-1" d="M93.2,85.48c-3.59-15.25-24.45-39.48-40.86-39.18-16.44-.31-37.27,23.93-40.86,39.18-1.14,4.57-.03,9.42,2.98,13.07,3.01,3.62,7.55,5.61,12.24,5.34,7.03-1.32,13.84-3.68,20.19-6.96,3.22-1.35,7.67-1.35,10.92,0,6.35,3.28,13.13,5.64,20.16,6.96,4.72.28,9.26-1.72,12.27-5.34,3.01-3.65,4.11-8.5,2.98-13.07ZM51.38,93.91c-6.54-3.37-14.02-11.11-13.74-18.87.09-2.7,1.63-5.25,4.14-6.5,3.34-1.69,7.39-.71,9.57,2.33h.03c2.18-3.04,6.26-4.02,9.57-2.33,2.55,1.26,4.08,3.8,4.17,6.5.25,7.76-7.24,15.49-13.74,18.87Z"/>
    </g>
  </g>
</svg>